<mxfile host="app.diagrams.net" modified="2021-10-07T11:44:27.556Z" agent="5.0 (Windows NT 10.0; Win64; x64) AppleWebKit/537.36 (KHTML, like Gecko) Chrome/93.0.4577.82 Safari/537.36" etag="NWRQ16yK3A-aafkV5Jze" version="15.4.3" type="github">
  <diagram id="PN8kuetyCjDLw-ILb-1d" name="Page-1">
    <mxGraphModel dx="2254" dy="863" grid="1" gridSize="10" guides="1" tooltips="1" connect="1" arrows="1" fold="1" page="1" pageScale="1" pageWidth="827" pageHeight="1169" math="0" shadow="0">
      <root>
        <mxCell id="0" />
        <mxCell id="1" parent="0" />
        <mxCell id="6koIWRQ8JG91AjPf6UxW-10" value="" style="rounded=0;whiteSpace=wrap;html=1;fontFamily=Tahoma;fontSize=23;strokeColor=none;fillColor=#b1ddf0;align=center;gradientColor=#ffffff;shadow=1;" vertex="1" parent="1">
          <mxGeometry x="10" y="270" width="1630" height="410" as="geometry" />
        </mxCell>
        <mxCell id="6koIWRQ8JG91AjPf6UxW-1" value="&lt;div style=&quot;text-align: justify&quot;&gt;&lt;b&gt;&lt;font style=&quot;font-size: 18px&quot;&gt;&lt;font face=&quot;Verdana&quot;&gt;Entwicklung&lt;/font&gt;&lt;/font&gt;&lt;/b&gt;&lt;/div&gt;&lt;b&gt;&lt;div style=&quot;text-align: justify&quot;&gt;&lt;b&gt;&lt;font style=&quot;font-size: 18px&quot;&gt;&lt;font face=&quot;Verdana&quot;&gt;Deployment&lt;/font&gt;&lt;/font&gt;&lt;/b&gt;&lt;/div&gt;&lt;font style=&quot;font-size: 18px&quot;&gt;&lt;div style=&quot;text-align: justify&quot;&gt;&lt;b style=&quot;font-size: 12px&quot;&gt;&lt;font style=&quot;font-size: 18px&quot;&gt;&lt;font face=&quot;Verdana&quot; color=&quot;#990000&quot;&gt;&lt;strike&gt;Betrieb&lt;/strike&gt;&lt;/font&gt;&lt;/font&gt;&lt;/b&gt;&lt;/div&gt;&lt;/font&gt;&lt;/b&gt;" style="rounded=0;whiteSpace=wrap;html=1;fillColor=#f5f5f5;strokeColor=none;fontColor=#333333;align=center;gradientColor=#ffffff;glass=1;shadow=1;sketch=1;" vertex="1" parent="1">
          <mxGeometry x="660" y="70" width="360" height="130" as="geometry" />
        </mxCell>
        <mxCell id="6koIWRQ8JG91AjPf6UxW-2" value="&lt;b&gt;Individualzahlungsverkehr&lt;/b&gt;" style="rounded=0;whiteSpace=wrap;html=1;fontFamily=Verdana;fontSize=18;align=center;fillColor=#b0e3e6;strokeColor=none;gradientColor=#ffffff;shadow=1;sketch=1;glass=1;" vertex="1" parent="1">
          <mxGeometry x="695" y="10" width="290" height="60" as="geometry" />
        </mxCell>
        <mxCell id="CYHRr_JMQJdO4Y0wQpkW-1" value="&lt;b&gt;&lt;font style=&quot;font-size: 19px&quot; face=&quot;Verdana&quot;&gt;Cloud:&lt;/font&gt;&lt;/b&gt;" style="rounded=1;whiteSpace=wrap;html=1;strokeColor=none;fillColor=#FFFFFF;" parent="1" vertex="1">
          <mxGeometry x="670" y="80" width="100" height="40" as="geometry" />
        </mxCell>
        <mxCell id="6koIWRQ8JG91AjPf6UxW-3" value="&lt;div style=&quot;font-size: 20px&quot;&gt;&lt;font face=&quot;Verdana&quot; style=&quot;font-size: 20px&quot;&gt;&lt;b&gt;Datenbanken&lt;/b&gt;&lt;/font&gt;&lt;/div&gt;&lt;div style=&quot;font-size: 20px&quot;&gt;&lt;br&gt;&lt;/div&gt;&lt;div style=&quot;text-align: justify&quot;&gt;&lt;font face=&quot;Verdana&quot;&gt;&lt;b style=&quot;font-size: 18px&quot;&gt;: &lt;/b&gt;&lt;b style=&quot;font-size: 18px&quot;&gt;postgres&lt;/b&gt;&lt;/font&gt;&lt;/div&gt;&lt;div style=&quot;text-align: justify&quot;&gt;&lt;font face=&quot;Verdana&quot;&gt;&lt;span style=&quot;font-size: 18px&quot;&gt;&lt;b&gt;: Liquibase&lt;/b&gt;&lt;/span&gt;&lt;/font&gt;&lt;/div&gt;" style="rounded=0;whiteSpace=wrap;html=1;fillColor=#eeeeee;strokeColor=none;align=center;gradientColor=#ffffff;glass=1;shadow=1;sketch=1;" vertex="1" parent="1">
          <mxGeometry x="20" y="340" width="240" height="300" as="geometry" />
        </mxCell>
        <mxCell id="6koIWRQ8JG91AjPf6UxW-4" value="&lt;div&gt;&lt;b&gt;&lt;font&gt;&lt;font face=&quot;Verdana&quot; style=&quot;font-size: 20px&quot;&gt;Security&lt;/font&gt;&lt;/font&gt;&lt;/b&gt;&lt;/div&gt;&lt;div style=&quot;text-align: justify&quot;&gt;&lt;b&gt;&lt;font&gt;&lt;font face=&quot;Verdana&quot; style=&quot;font-size: 20px&quot;&gt;&lt;br&gt;&lt;/font&gt;&lt;/font&gt;&lt;/b&gt;&lt;/div&gt;&lt;b&gt;&lt;div style=&quot;text-align: justify&quot;&gt;&lt;b&gt;&lt;font style=&quot;font-size: 18px&quot;&gt;&lt;font face=&quot;Verdana&quot;&gt;: OAUTH2&lt;/font&gt;&lt;/font&gt;&lt;/b&gt;&lt;/div&gt;&lt;font style=&quot;font-size: 18px&quot;&gt;&lt;div style=&quot;text-align: justify&quot;&gt;&lt;b style=&quot;font-size: 12px&quot;&gt;&lt;font style=&quot;font-size: 18px&quot;&gt;&lt;font face=&quot;Verdana&quot;&gt;: OIDC (Gravitee)&lt;/font&gt;&lt;/font&gt;&lt;/b&gt;&lt;/div&gt;&lt;div style=&quot;text-align: justify&quot;&gt;&lt;b style=&quot;font-size: 12px&quot;&gt;&lt;font style=&quot;font-size: 18px&quot;&gt;&lt;font face=&quot;Verdana&quot;&gt;: Token&lt;/font&gt;&lt;/font&gt;&lt;/b&gt;&lt;/div&gt;&lt;div style=&quot;text-align: justify&quot;&gt;&lt;b style=&quot;font-size: 12px&quot;&gt;&lt;font style=&quot;font-size: 18px&quot;&gt;&lt;font face=&quot;Verdana&quot;&gt;: Azure-AD&lt;/font&gt;&lt;/font&gt;&lt;/b&gt;&lt;/div&gt;&lt;div style=&quot;text-align: justify&quot;&gt;&lt;b style=&quot;font-size: 12px&quot;&gt;&lt;font style=&quot;font-size: 18px&quot;&gt;&lt;font face=&quot;Verdana&quot;&gt;:&amp;nbsp;&lt;/font&gt;&lt;/font&gt;&lt;/b&gt;&lt;b style=&quot;font-family: &amp;#34;verdana&amp;#34;&quot;&gt;Infrastruktur&lt;/b&gt;&lt;/div&gt;&lt;/font&gt;&lt;/b&gt;" style="rounded=0;whiteSpace=wrap;html=1;fillColor=#eeeeee;strokeColor=none;align=center;gradientColor=#ffffff;shadow=1;sketch=1;glass=1;" vertex="1" parent="1">
          <mxGeometry x="330" y="340" width="240" height="300" as="geometry" />
        </mxCell>
        <mxCell id="6koIWRQ8JG91AjPf6UxW-5" value="&lt;div&gt;&lt;font face=&quot;Verdana&quot; size=&quot;1&quot;&gt;&lt;b style=&quot;font-size: 20px&quot;&gt;Microservice&lt;/b&gt;&lt;/font&gt;&lt;/div&gt;&lt;div style=&quot;text-align: justify&quot;&gt;&lt;font face=&quot;Verdana&quot;&gt;&lt;span style=&quot;font-size: 18px&quot;&gt;&lt;b&gt;&lt;br&gt;&lt;/b&gt;&lt;/span&gt;&lt;/font&gt;&lt;/div&gt;&lt;div style=&quot;text-align: justify&quot;&gt;&lt;font face=&quot;Verdana&quot;&gt;&lt;span style=&quot;font-size: 18px&quot;&gt;&lt;b&gt;: Springboot (Basis)&lt;/b&gt;&lt;/span&gt;&lt;/font&gt;&lt;/div&gt;&lt;div style=&quot;text-align: justify&quot;&gt;&lt;font face=&quot;Verdana&quot;&gt;&lt;span style=&quot;font-size: 18px&quot;&gt;&lt;b&gt;: Hibernate JPA&lt;/b&gt;&lt;/span&gt;&lt;/font&gt;&lt;/div&gt;&lt;div style=&quot;text-align: justify&quot;&gt;&lt;font face=&quot;Verdana&quot;&gt;&lt;span style=&quot;font-size: 18px&quot;&gt;&lt;b&gt;: Docker&lt;/b&gt;&lt;/span&gt;&lt;/font&gt;&lt;/div&gt;&lt;div style=&quot;text-align: justify&quot;&gt;&lt;font face=&quot;Verdana&quot;&gt;&lt;span style=&quot;font-size: 18px&quot;&gt;&lt;b&gt;: OpenAPI&lt;/b&gt;&lt;/span&gt;&lt;/font&gt;&lt;/div&gt;&lt;div style=&quot;text-align: justify&quot;&gt;&lt;br&gt;&lt;/div&gt;" style="rounded=0;whiteSpace=wrap;html=1;fillColor=#eeeeee;strokeColor=none;align=center;gradientColor=#ffffff;shadow=1;sketch=1;glass=1;" vertex="1" parent="1">
          <mxGeometry x="640" y="340" width="240" height="300" as="geometry" />
        </mxCell>
        <mxCell id="6koIWRQ8JG91AjPf6UxW-6" value="&lt;div&gt;&lt;font face=&quot;Verdana&quot; size=&quot;1&quot;&gt;&lt;b style=&quot;font-size: 20px&quot;&gt;Deployment&lt;/b&gt;&lt;/font&gt;&lt;/div&gt;&lt;div&gt;&lt;font face=&quot;Verdana&quot; size=&quot;1&quot;&gt;&lt;b style=&quot;font-size: 20px&quot;&gt;&lt;br&gt;&lt;/b&gt;&lt;/font&gt;&lt;/div&gt;&lt;div style=&quot;text-align: justify&quot;&gt;&lt;font face=&quot;Verdana&quot; size=&quot;1&quot;&gt;&lt;b style=&quot;font-size: 20px&quot;&gt;:&amp;nbsp;&lt;/b&gt;&lt;/font&gt;&lt;b style=&quot;font-family: &amp;#34;verdana&amp;#34; ; font-size: 20px&quot;&gt;Helm Charts (GitOps)&amp;nbsp;&lt;/b&gt;&lt;/div&gt;&lt;div style=&quot;text-align: justify&quot;&gt;&lt;b style=&quot;font-family: &amp;#34;verdana&amp;#34; ; font-size: 20px&quot;&gt;: Kubernetes&lt;/b&gt;&lt;/div&gt;&lt;div style=&quot;text-align: justify&quot;&gt;&lt;b style=&quot;font-family: &amp;#34;verdana&amp;#34; ; font-size: 20px&quot;&gt;: Artifactory&lt;/b&gt;&lt;/div&gt;&lt;div style=&quot;text-align: justify&quot;&gt;&lt;b style=&quot;font-family: &amp;#34;verdana&amp;#34; ; font-size: 20px&quot;&gt;: GitHub Workflows (Pipelines)&lt;/b&gt;&lt;/div&gt;&lt;div style=&quot;text-align: justify&quot;&gt;&lt;b style=&quot;font-family: &amp;#34;verdana&amp;#34; ; font-size: 20px&quot;&gt;: Monitoring/Logging&lt;/b&gt;&lt;/div&gt;&lt;div style=&quot;text-align: justify&quot;&gt;&lt;b style=&quot;font-family: &amp;#34;verdana&amp;#34; ; font-size: 20px&quot;&gt;&lt;br&gt;&lt;/b&gt;&lt;/div&gt;" style="rounded=0;whiteSpace=wrap;html=1;fillColor=#eeeeee;strokeColor=none;align=center;gradientColor=#ffffff;sketch=1;shadow=1;glass=1;" vertex="1" parent="1">
          <mxGeometry x="940" y="340" width="390" height="300" as="geometry" />
        </mxCell>
        <mxCell id="6koIWRQ8JG91AjPf6UxW-7" value="&lt;div&gt;&lt;font face=&quot;Verdana&quot; size=&quot;1&quot;&gt;&lt;b style=&quot;font-size: 20px&quot;&gt;Testing/UI&lt;/b&gt;&lt;/font&gt;&lt;/div&gt;&lt;div&gt;&lt;font face=&quot;Verdana&quot; size=&quot;1&quot;&gt;&lt;b style=&quot;font-size: 20px&quot;&gt;&lt;br&gt;&lt;/b&gt;&lt;/font&gt;&lt;/div&gt;&lt;div style=&quot;text-align: justify&quot;&gt;&lt;font face=&quot;Verdana&quot; size=&quot;1&quot;&gt;&lt;b style=&quot;font-size: 20px&quot;&gt;: JUnit&lt;/b&gt;&lt;/font&gt;&lt;/div&gt;&lt;div style=&quot;text-align: justify&quot;&gt;&lt;font face=&quot;Verdana&quot; size=&quot;1&quot;&gt;&lt;b style=&quot;font-size: 20px&quot;&gt;: Integrations-Test&lt;/b&gt;&lt;/font&gt;&lt;/div&gt;&lt;div style=&quot;text-align: justify&quot;&gt;&lt;font face=&quot;Verdana&quot; size=&quot;1&quot;&gt;&lt;b style=&quot;font-size: 20px&quot;&gt;: BaseOne (UI)&lt;/b&gt;&lt;/font&gt;&lt;/div&gt;" style="rounded=0;whiteSpace=wrap;html=1;fillColor=#eeeeee;strokeColor=none;align=center;gradientColor=#ffffff;shadow=1;glass=1;" vertex="1" parent="1">
          <mxGeometry x="1390" y="340" width="240" height="300" as="geometry" />
        </mxCell>
        <mxCell id="6koIWRQ8JG91AjPf6UxW-9" value="&lt;font face=&quot;Tahoma&quot; color=&quot;#000000&quot; style=&quot;font-size: 23px&quot;&gt;Jedes Teammitglied sollte es verstehen und können&lt;/font&gt;" style="rounded=0;whiteSpace=wrap;html=1;fontFamily=Verdana;fontSize=20;strokeColor=none;fillColor=#b1ddf0;align=center;gradientColor=#ffffff;glass=1;shadow=1;sketch=1;" vertex="1" parent="1">
          <mxGeometry x="550" y="250" width="559" height="60" as="geometry" />
        </mxCell>
        <mxCell id="6koIWRQ8JG91AjPf6UxW-11" value="&lt;div&gt;&lt;b style=&quot;font-size: 18px&quot;&gt;&lt;font color=&quot;#cc0000&quot;&gt;! Spezialist&lt;/font&gt;&lt;/b&gt;&lt;/div&gt;&lt;div style=&quot;text-align: justify&quot;&gt;&lt;span style=&quot;font-size: 18px&quot;&gt;&lt;b&gt;&lt;br&gt;&lt;/b&gt;&lt;/span&gt;&lt;/div&gt;&lt;font style=&quot;font-size: 18px ; font-weight: bold&quot;&gt;&lt;div style=&quot;text-align: left&quot;&gt;&lt;span&gt;: managed postgres&lt;/span&gt;&lt;/div&gt;&lt;div style=&quot;text-align: left&quot;&gt;&lt;span&gt;: Liquibase im Betrieb&lt;/span&gt;&lt;/div&gt;&lt;/font&gt;" style="shape=callout;whiteSpace=wrap;html=1;perimeter=calloutPerimeter;rounded=0;shadow=1;glass=1;sketch=1;fontFamily=Tahoma;fontSize=23;fontColor=#000000;strokeColor=default;fillColor=#FFFFFF;gradientColor=#ffffff;align=center;direction=west;" vertex="1" parent="1">
          <mxGeometry x="10" y="660" width="240" height="210" as="geometry" />
        </mxCell>
        <mxCell id="6koIWRQ8JG91AjPf6UxW-14" value="&lt;div&gt;&lt;b style=&quot;font-size: 18px&quot;&gt;&lt;font color=&quot;#cc0000&quot;&gt;! Spezialist&lt;/font&gt;&lt;/b&gt;&lt;/div&gt;&lt;div style=&quot;text-align: justify&quot;&gt;&lt;span style=&quot;font-size: 18px&quot;&gt;&lt;b&gt;&lt;br&gt;&lt;/b&gt;&lt;/span&gt;&lt;/div&gt;&lt;font style=&quot;font-size: 18px ; font-weight: bold&quot;&gt;&lt;div style=&quot;text-align: left&quot;&gt;&lt;span&gt;: Konzepte&lt;/span&gt;&lt;/div&gt;&lt;div style=&quot;text-align: left&quot;&gt;&lt;span&gt;: Entscheidungen&lt;/span&gt;&lt;/div&gt;&lt;/font&gt;" style="shape=callout;whiteSpace=wrap;html=1;perimeter=calloutPerimeter;rounded=0;shadow=1;glass=1;sketch=1;fontFamily=Tahoma;fontSize=23;fontColor=#000000;strokeColor=default;fillColor=#FFFFFF;gradientColor=#ffffff;align=center;direction=west;" vertex="1" parent="1">
          <mxGeometry x="330" y="660" width="240" height="210" as="geometry" />
        </mxCell>
        <mxCell id="6koIWRQ8JG91AjPf6UxW-15" value="&lt;div&gt;&lt;b style=&quot;font-size: 18px&quot;&gt;Spezialist&lt;/b&gt;&lt;/div&gt;&lt;div style=&quot;text-align: justify&quot;&gt;&lt;span style=&quot;font-size: 18px&quot;&gt;&lt;b&gt;&lt;br&gt;&lt;/b&gt;&lt;/span&gt;&lt;/div&gt;&lt;font style=&quot;font-size: 18px ; font-weight: bold&quot;&gt;&lt;div style=&quot;text-align: left&quot;&gt;&lt;span&gt;: Kubernetes / GitOps&lt;/span&gt;&lt;/div&gt;&lt;div style=&quot;text-align: left&quot;&gt;&lt;span&gt;: Github / Pipelines&lt;/span&gt;&lt;/div&gt;&lt;/font&gt;" style="shape=callout;whiteSpace=wrap;html=1;perimeter=calloutPerimeter;rounded=0;shadow=1;glass=1;sketch=1;fontFamily=Tahoma;fontSize=23;fontColor=#000000;strokeColor=default;fillColor=#FFFFFF;gradientColor=#ffffff;align=center;direction=west;" vertex="1" parent="1">
          <mxGeometry x="1015" y="660" width="240" height="210" as="geometry" />
        </mxCell>
        <mxCell id="6koIWRQ8JG91AjPf6UxW-16" value="&lt;div&gt;&lt;b style=&quot;font-size: 18px&quot;&gt;Spezialist&lt;/b&gt;&lt;/div&gt;&lt;div style=&quot;text-align: justify&quot;&gt;&lt;span style=&quot;font-size: 18px&quot;&gt;&lt;b&gt;&lt;br&gt;&lt;/b&gt;&lt;/span&gt;&lt;/div&gt;&lt;font style=&quot;font-size: 18px ; font-weight: bold&quot;&gt;&lt;div style=&quot;text-align: left&quot;&gt;&lt;span&gt;: OpenAPI ?&amp;nbsp;&lt;/span&gt;&lt;/div&gt;&lt;div style=&quot;text-align: left&quot;&gt;&lt;br&gt;&lt;/div&gt;&lt;/font&gt;" style="shape=callout;whiteSpace=wrap;html=1;perimeter=calloutPerimeter;rounded=0;shadow=1;glass=1;sketch=1;fontFamily=Tahoma;fontSize=23;fontColor=#000000;strokeColor=default;fillColor=#FFFFFF;gradientColor=#ffffff;align=center;direction=west;" vertex="1" parent="1">
          <mxGeometry x="640" y="660" width="240" height="210" as="geometry" />
        </mxCell>
        <mxCell id="6koIWRQ8JG91AjPf6UxW-17" value="&lt;div&gt;&lt;b&gt;&lt;font style=&quot;font-size: 15px&quot;&gt;steht noch nicht im Fokus&lt;/font&gt;&lt;/b&gt;&lt;/div&gt;" style="shape=callout;whiteSpace=wrap;html=1;perimeter=calloutPerimeter;rounded=0;shadow=1;glass=1;sketch=1;fontFamily=Tahoma;fontSize=23;fontColor=#000000;strokeColor=default;fillColor=#FFFFFF;gradientColor=#ffffff;align=center;direction=west;" vertex="1" parent="1">
          <mxGeometry x="1390" y="660" width="240" height="210" as="geometry" />
        </mxCell>
        <mxCell id="6koIWRQ8JG91AjPf6UxW-23" style="edgeStyle=orthogonalEdgeStyle;rounded=0;orthogonalLoop=1;jettySize=auto;html=1;fontFamily=Tahoma;fontSize=15;fontColor=#000000;exitX=1.016;exitY=0.542;exitDx=0;exitDy=0;exitPerimeter=0;" edge="1" parent="1" source="6koIWRQ8JG91AjPf6UxW-43" target="6koIWRQ8JG91AjPf6UxW-19">
          <mxGeometry relative="1" as="geometry" />
        </mxCell>
        <mxCell id="6koIWRQ8JG91AjPf6UxW-25" value="commit" style="text;html=1;align=center;verticalAlign=middle;resizable=0;points=[];autosize=1;strokeColor=none;fillColor=none;fontSize=15;fontFamily=Tahoma;fontColor=#000000;" vertex="1" parent="1">
          <mxGeometry x="270" y="1302" width="60" height="20" as="geometry" />
        </mxCell>
        <mxCell id="6koIWRQ8JG91AjPf6UxW-28" value="" style="group" vertex="1" connectable="0" parent="1">
          <mxGeometry x="376" y="1240" width="75" height="150" as="geometry" />
        </mxCell>
        <mxCell id="6koIWRQ8JG91AjPf6UxW-18" value="" style="verticalLabelPosition=bottom;html=1;verticalAlign=top;align=center;strokeColor=none;fillColor=#00BEF2;shape=mxgraph.azure.git_repository;rounded=0;shadow=1;glass=1;sketch=0;fontFamily=Tahoma;fontSize=15;fontColor=#000000;" vertex="1" parent="6koIWRQ8JG91AjPf6UxW-28">
          <mxGeometry x="12.5" y="100" width="50" height="50" as="geometry" />
        </mxCell>
        <mxCell id="6koIWRQ8JG91AjPf6UxW-19" value="" style="dashed=0;outlineConnect=0;html=1;align=center;labelPosition=center;verticalLabelPosition=bottom;verticalAlign=top;shape=mxgraph.weblogos.github;rounded=0;shadow=1;glass=1;sketch=0;fontFamily=Tahoma;fontSize=15;fontColor=#000000;strokeColor=default;fillColor=#FFFFFF;gradientColor=#ffffff;" vertex="1" parent="6koIWRQ8JG91AjPf6UxW-28">
          <mxGeometry y="20" width="75" height="75" as="geometry" />
        </mxCell>
        <mxCell id="6koIWRQ8JG91AjPf6UxW-27" value="Github" style="text;html=1;align=center;verticalAlign=middle;resizable=0;points=[];autosize=1;strokeColor=none;fillColor=none;fontSize=15;fontFamily=Tahoma;fontColor=#000000;" vertex="1" parent="6koIWRQ8JG91AjPf6UxW-28">
          <mxGeometry x="7.5" width="60" height="20" as="geometry" />
        </mxCell>
        <mxCell id="6koIWRQ8JG91AjPf6UxW-34" style="edgeStyle=orthogonalEdgeStyle;rounded=0;orthogonalLoop=1;jettySize=auto;html=1;fontFamily=Tahoma;fontSize=15;fontColor=#000000;" edge="1" parent="1" source="6koIWRQ8JG91AjPf6UxW-30" target="6koIWRQ8JG91AjPf6UxW-33">
          <mxGeometry relative="1" as="geometry" />
        </mxCell>
        <mxCell id="6koIWRQ8JG91AjPf6UxW-30" value="" style="sketch=0;aspect=fixed;html=1;points=[];align=center;image;fontSize=12;image=img/lib/mscae/Azure_Pipelines.svg;rounded=0;shadow=1;glass=1;fontFamily=Tahoma;fontColor=#000000;strokeColor=default;fillColor=#FFFFFF;gradientColor=#ffffff;" vertex="1" parent="1">
          <mxGeometry x="550" y="1272.5" width="50" height="50" as="geometry" />
        </mxCell>
        <mxCell id="6koIWRQ8JG91AjPf6UxW-31" style="edgeStyle=orthogonalEdgeStyle;rounded=0;orthogonalLoop=1;jettySize=auto;html=1;fontFamily=Tahoma;fontSize=15;fontColor=#000000;" edge="1" parent="1" source="6koIWRQ8JG91AjPf6UxW-19" target="6koIWRQ8JG91AjPf6UxW-30">
          <mxGeometry relative="1" as="geometry" />
        </mxCell>
        <mxCell id="6koIWRQ8JG91AjPf6UxW-32" value="CI/CD Pipelines" style="text;html=1;align=center;verticalAlign=middle;resizable=0;points=[];autosize=1;strokeColor=none;fillColor=none;fontSize=15;fontFamily=Tahoma;fontColor=#000000;" vertex="1" parent="1">
          <mxGeometry x="530" y="1240" width="120" height="20" as="geometry" />
        </mxCell>
        <mxCell id="6koIWRQ8JG91AjPf6UxW-33" value="" style="sketch=0;outlineConnect=0;fontColor=#232F3E;gradientColor=none;fillColor=#FF9900;strokeColor=none;dashed=0;verticalLabelPosition=bottom;verticalAlign=top;align=center;html=1;fontSize=12;fontStyle=0;aspect=fixed;pointerEvents=1;shape=mxgraph.aws4.registry;rounded=0;shadow=0;glass=1;fontFamily=Tahoma;" vertex="1" parent="1">
          <mxGeometry x="730" y="1274" width="48" height="48" as="geometry" />
        </mxCell>
        <mxCell id="6koIWRQ8JG91AjPf6UxW-35" value="Push Images / &lt;br&gt;Artifakte" style="text;html=1;align=center;verticalAlign=middle;resizable=0;points=[];autosize=1;strokeColor=none;fillColor=none;fontSize=15;fontFamily=Tahoma;fontColor=#000000;" vertex="1" parent="1">
          <mxGeometry x="610" y="1295" width="110" height="40" as="geometry" />
        </mxCell>
        <mxCell id="6koIWRQ8JG91AjPf6UxW-36" value="Artifactory" style="text;html=1;align=center;verticalAlign=middle;resizable=0;points=[];autosize=1;strokeColor=none;fillColor=none;fontSize=15;fontFamily=Tahoma;fontColor=#000000;" vertex="1" parent="1">
          <mxGeometry x="710" y="1250" width="80" height="20" as="geometry" />
        </mxCell>
        <mxCell id="6koIWRQ8JG91AjPf6UxW-46" value="" style="group;glass=0;shadow=0;sketch=0;strokeColor=none;rounded=0;fillColor=#f5f5f5;fontColor=#333333;" vertex="1" connectable="0" parent="1">
          <mxGeometry x="50" y="1162" width="180" height="250" as="geometry" />
        </mxCell>
        <mxCell id="6koIWRQ8JG91AjPf6UxW-43" value="" style="rounded=0;whiteSpace=wrap;html=1;shadow=1;glass=1;sketch=0;fontFamily=Tahoma;fontSize=15;strokeColor=none;fillColor=#b1ddf0;align=left;gradientColor=#ffffff;" vertex="1" parent="6koIWRQ8JG91AjPf6UxW-46">
          <mxGeometry x="-21.176470588235293" width="201.1764705882353" height="250.00000000000006" as="geometry" />
        </mxCell>
        <mxCell id="6koIWRQ8JG91AjPf6UxW-21" value="" style="verticalLabelPosition=bottom;html=1;verticalAlign=top;align=center;strokeColor=none;fillColor=#00BEF2;shape=mxgraph.azure.code_file;pointerEvents=1;rounded=0;shadow=0;glass=1;sketch=0;fontFamily=Tahoma;fontSize=15;fontColor=#000000;" vertex="1" parent="6koIWRQ8JG91AjPf6UxW-46">
          <mxGeometry x="115.67647058823529" y="50" width="50.294117647058826" height="52.08333333333334" as="geometry" />
        </mxCell>
        <mxCell id="6koIWRQ8JG91AjPf6UxW-22" value="Source Code" style="text;html=1;align=center;verticalAlign=middle;resizable=0;points=[];autosize=1;strokeColor=none;fillColor=none;fontSize=15;fontFamily=Tahoma;fontColor=#000000;" vertex="1" parent="6koIWRQ8JG91AjPf6UxW-46">
          <mxGeometry x="-5.294117647058823" y="65.625" width="100" height="20" as="geometry" />
        </mxCell>
        <mxCell id="6koIWRQ8JG91AjPf6UxW-41" value="" style="group" vertex="1" connectable="0" parent="6koIWRQ8JG91AjPf6UxW-46">
          <mxGeometry x="114.3529411764706" y="117.70833333333336" width="52.94117647058824" height="52.08333333333334" as="geometry" />
        </mxCell>
        <mxCell id="6koIWRQ8JG91AjPf6UxW-40" value="" style="whiteSpace=wrap;html=1;shape=mxgraph.basic.document;rounded=0;shadow=0;glass=1;sketch=0;fontFamily=Tahoma;fontSize=15;fontColor=#000000;strokeColor=#66B2FF;fillColor=#FFFFFF;gradientColor=#ffffff;align=left;" vertex="1" parent="6koIWRQ8JG91AjPf6UxW-41">
          <mxGeometry width="52.94117647058824" height="52.08333333333334" as="geometry" />
        </mxCell>
        <mxCell id="6koIWRQ8JG91AjPf6UxW-37" value="" style="shape=image;html=1;verticalAlign=top;verticalLabelPosition=bottom;labelBackgroundColor=#ffffff;imageAspect=0;aspect=fixed;image=https://cdn4.iconfinder.com/data/icons/logos-and-brands/512/97_Docker_logo_logos-128.png;rounded=0;shadow=0;glass=1;sketch=0;fontFamily=Tahoma;fontSize=15;fontColor=#000000;strokeColor=default;fillColor=#FFFFFF;gradientColor=#ffffff;" vertex="1" parent="6koIWRQ8JG91AjPf6UxW-41">
          <mxGeometry x="8.823529411764707" y="8.680555555555559" width="32.05128205128206" height="32.05128205128206" as="geometry" />
        </mxCell>
        <mxCell id="6koIWRQ8JG91AjPf6UxW-45" value="" style="verticalLabelPosition=bottom;html=1;verticalAlign=top;align=center;strokeColor=none;fillColor=#00BEF2;shape=mxgraph.azure.cloud_services_configuration_file;pointerEvents=1;rounded=0;shadow=0;glass=1;sketch=0;fontFamily=Tahoma;fontSize=15;fontColor=#000000;" vertex="1" parent="6koIWRQ8JG91AjPf6UxW-46">
          <mxGeometry x="115.41176470588235" y="185.4166666666667" width="50.294117647058826" height="52.08333333333334" as="geometry" />
        </mxCell>
        <mxCell id="6koIWRQ8JG91AjPf6UxW-48" value="Github Workflows" style="text;html=1;align=center;verticalAlign=middle;resizable=0;points=[];autosize=1;strokeColor=none;fillColor=none;fontSize=15;fontFamily=Tahoma;fontColor=#000000;" vertex="1" parent="6koIWRQ8JG91AjPf6UxW-46">
          <mxGeometry x="-21.176470588235293" y="201.0416666666667" width="130" height="20" as="geometry" />
        </mxCell>
        <mxCell id="6koIWRQ8JG91AjPf6UxW-47" value="DockerFile" style="text;html=1;align=center;verticalAlign=middle;resizable=0;points=[];autosize=1;strokeColor=none;fillColor=none;fontSize=15;fontFamily=Tahoma;fontColor=#000000;" vertex="1" parent="6koIWRQ8JG91AjPf6UxW-46">
          <mxGeometry x="5.294117647058823" y="126.04166666666669" width="80" height="20" as="geometry" />
        </mxCell>
      </root>
    </mxGraphModel>
  </diagram>
</mxfile>
